<?xml version="1.0" encoding="utf-8"?>
<!-- Generator: Adobe Illustrator 21.0.0, SVG Export Plug-In . SVG Version: 6.00 Build 0)  -->
<svg version="1.1" id="Layer_1" xmlns="http://www.w3.org/2000/svg" xmlns:xlink="http://www.w3.org/1999/xlink" x="0px" y="0px"
	 viewBox="0 0 500 500" style="enable-background:new 0 0 500 500;" xml:space="preserve">
<style type="text/css">
	.icon{fill:black;}
</style>
<g>
	<path class="icon" d="M394.3,88.4h-1.6c0,0,0,0-0.1,0c-0.2,0-0.4,0-0.6,0c-0.2,0-0.4,0-0.6,0c0,0,0,0-0.1,0c-0.1,0-0.3,0-0.4,0.1
		c-0.2,0-0.5,0.1-0.7,0.1c-0.2,0-0.3,0.1-0.5,0.1c-0.2,0.1-0.4,0.1-0.7,0.2c-0.2,0.1-0.3,0.1-0.5,0.2c-0.2,0.1-0.4,0.1-0.6,0.2
		c-0.2,0.1-0.4,0.2-0.5,0.3c-0.2,0.1-0.3,0.2-0.5,0.2c-0.2,0.1-0.4,0.2-0.5,0.3c-0.1,0.1-0.3,0.2-0.4,0.3c-0.2,0.1-0.3,0.3-0.5,0.4
		c-0.1,0.1-0.3,0.2-0.4,0.3c-0.2,0.1-0.3,0.3-0.4,0.4c-0.1,0.1-0.3,0.2-0.4,0.4c-0.1,0.1-0.2,0.3-0.4,0.4c-0.1,0.1-0.3,0.3-0.4,0.4
		c-0.1,0.1-0.2,0.3-0.3,0.4c-0.1,0.2-0.3,0.3-0.4,0.5c-0.1,0.1-0.2,0.3-0.2,0.4c-0.1,0.2-0.2,0.4-0.3,0.6c-0.1,0.1-0.1,0.3-0.2,0.4
		c-0.1,0.2-0.2,0.4-0.3,0.6c-0.1,0.1-0.1,0.3-0.2,0.5c-0.1,0.2-0.1,0.4-0.2,0.6c-0.1,0.2-0.1,0.3-0.1,0.5c0,0.2-0.1,0.4-0.1,0.6
		c0,0.2-0.1,0.4-0.1,0.6c0,0.2-0.1,0.4-0.1,0.5c0,0.2,0,0.4,0,0.6c0,0.2,0,0.3,0,0.5c0,0,0,0.1,0,0.1c0,0.2,0,0.3,0,0.5
		c0,0.2,0,0.5,0,0.7c0,0,0,0,0,0c0.6,4.9,0.9,9.9,0.9,14.9c0,63.6-45.3,118.1-107.6,129.6c0,0-0.1,0-0.1,0c-0.3,0.1-0.5,0.1-0.8,0.2
		c-0.1,0-0.2,0.1-0.4,0.1c-0.2,0.1-0.5,0.2-0.7,0.3c-0.1,0-0.3,0.1-0.4,0.1c-0.2,0.1-0.4,0.2-0.6,0.3c-0.1,0.1-0.3,0.1-0.4,0.2
		c-0.2,0.1-0.3,0.2-0.5,0.3c-0.2,0.1-0.3,0.2-0.5,0.3c-0.1,0.1-0.3,0.2-0.4,0.3c-0.2,0.1-0.3,0.2-0.5,0.4c-0.1,0.1-0.3,0.2-0.4,0.3
		c-0.2,0.1-0.3,0.3-0.5,0.4c-0.1,0.1-0.3,0.3-0.4,0.4c-0.1,0.1-0.2,0.2-0.3,0.4c-0.2,0.2-0.3,0.4-0.5,0.6c-0.1,0.1-0.1,0.2-0.2,0.3
		c-0.2,0.2-0.3,0.5-0.4,0.7c0,0.1-0.1,0.1-0.1,0.2c-0.1,0.2-0.3,0.5-0.4,0.8c0,0.1-0.1,0.2-0.1,0.3c-0.1,0.2-0.2,0.5-0.3,0.7
		c0,0.1-0.1,0.2-0.1,0.4c-0.1,0.2-0.1,0.4-0.2,0.6c0,0.2-0.1,0.3-0.1,0.5c0,0.2-0.1,0.3-0.1,0.5c0,0.2-0.1,0.4-0.1,0.7
		c0,0.2,0,0.3,0,0.5c0,0.2,0,0.5,0,0.7c0,0,0,0.1,0,0.1v28.9h-29.5v-28.9c0,0,0-0.1,0-0.1c0-0.2,0-0.5,0-0.7c0-0.2,0-0.3,0-0.5
		c0-0.2-0.1-0.4-0.1-0.7c0-0.2,0-0.3-0.1-0.5c0-0.2-0.1-0.3-0.1-0.5c-0.1-0.2-0.1-0.4-0.2-0.6c0-0.1-0.1-0.3-0.1-0.4
		c-0.1-0.2-0.2-0.5-0.3-0.7c0-0.1-0.1-0.2-0.1-0.3c-0.1-0.3-0.2-0.5-0.4-0.7c0-0.1-0.1-0.2-0.1-0.2c-0.1-0.2-0.3-0.5-0.4-0.7
		c-0.1-0.1-0.1-0.2-0.2-0.3c-0.1-0.2-0.3-0.4-0.5-0.6c-0.1-0.1-0.2-0.2-0.3-0.4c-0.1-0.2-0.3-0.3-0.4-0.4c-0.1-0.1-0.3-0.3-0.5-0.4
		c-0.1-0.1-0.2-0.2-0.4-0.3c-0.2-0.1-0.3-0.3-0.5-0.4c-0.1-0.1-0.3-0.2-0.4-0.3c-0.2-0.1-0.3-0.2-0.5-0.3c-0.2-0.1-0.3-0.2-0.5-0.3
		c-0.1-0.1-0.3-0.1-0.4-0.2c-0.2-0.1-0.4-0.2-0.6-0.3c-0.1-0.1-0.2-0.1-0.4-0.1c-0.2-0.1-0.5-0.2-0.7-0.3c-0.1,0-0.2-0.1-0.4-0.1
		c-0.3-0.1-0.5-0.1-0.8-0.2c0,0-0.1,0-0.1,0c-62.4-11.6-107.6-66.1-107.6-129.6c0-5,0.3-10,0.9-14.9c0,0,0,0,0,0c0-0.2,0-0.5,0-0.7
		c0-0.2,0-0.3,0-0.5c0,0,0-0.1,0-0.1c0-0.2,0-0.3,0-0.5c0-0.2,0-0.4,0-0.6c0-0.2,0-0.4-0.1-0.5c0-0.2-0.1-0.4-0.1-0.6
		c0-0.2-0.1-0.4-0.1-0.6c0-0.2-0.1-0.4-0.1-0.5c-0.1-0.2-0.1-0.4-0.2-0.6c-0.1-0.2-0.1-0.3-0.2-0.5c-0.1-0.2-0.2-0.4-0.3-0.6
		c-0.1-0.1-0.1-0.3-0.2-0.4c-0.1-0.2-0.2-0.4-0.3-0.6c-0.1-0.1-0.2-0.3-0.2-0.4c-0.1-0.2-0.2-0.3-0.4-0.5c-0.1-0.1-0.2-0.3-0.3-0.4
		c-0.1-0.1-0.3-0.3-0.4-0.4c-0.1-0.1-0.2-0.3-0.4-0.4c-0.1-0.1-0.3-0.2-0.4-0.4c-0.1-0.1-0.3-0.3-0.4-0.4c-0.1-0.1-0.3-0.2-0.4-0.3
		c-0.2-0.1-0.3-0.3-0.5-0.4c-0.1-0.1-0.3-0.2-0.4-0.3c-0.2-0.1-0.4-0.2-0.5-0.3c-0.2-0.1-0.3-0.2-0.5-0.2c-0.2-0.1-0.4-0.2-0.5-0.3
		c-0.2-0.1-0.4-0.1-0.6-0.2c-0.2-0.1-0.3-0.1-0.5-0.2c-0.2-0.1-0.4-0.1-0.7-0.2c-0.2,0-0.3-0.1-0.5-0.1c-0.2,0-0.5-0.1-0.7-0.1
		c-0.1,0-0.3-0.1-0.4-0.1c0,0,0,0-0.1,0c-0.2,0-0.5,0-0.7,0c-0.2,0-0.3,0-0.5,0c0,0-0.1,0-0.1,0h-1.6c-32.2,0-58.3,26.2-58.3,58.3
		v288.6c0,32.2,26.2,58.3,58.3,58.3h288.6c32.2,0,58.3-26.2,58.3-58.3V146.8C452.6,114.6,426.5,88.4,394.3,88.4z M429.3,435.3
		c0,19.3-15.7,35-35,35H105.7c-19.3,0-35-15.7-35-35V146.8c0-15.5,10.1-28.7,24.1-33.3c0,0.9,0,1.9,0,2.8
		c0,71.5,48.7,133.3,117.2,150.5V291c0,10.3,8.4,18.7,18.7,18.7h38.7c10.3,0,18.7-8.4,18.7-18.7v-24.1
		c68.4-17.2,117.2-79,117.2-150.5c0-0.9,0-1.9,0-2.8c14,4.6,24.1,17.8,24.1,33.3V435.3z"/>
	<path class="icon" d="M249.4,224.2c60.1,0,109-48.9,109-109s-48.9-109-109-109c-60.1,0-109,48.9-109,109S189.4,224.2,249.4,224.2z
		 M249.4,29.7c47.2,0,85.6,38.4,85.6,85.6c0,47.2-38.4,85.6-85.6,85.6c-47.2,0-85.6-38.4-85.6-85.6
		C163.8,68.1,202.2,29.7,249.4,29.7z"/>
	<path class="icon" d="M204.5,115.3c0-6.4-5.2-11.7-11.7-11.7h-11.2c-6.4,0-11.7,5.2-11.7,11.7c0,6.4,5.2,11.7,11.7,11.7h11.2
		C199.2,127,204.5,121.7,204.5,115.3z"/>
	<path class="icon" d="M249.4,160.3c-6.4,0-11.7,5.2-11.7,11.7v11.2c0,6.4,5.2,11.7,11.7,11.7s11.7-5.2,11.7-11.7v-11.2
		C261.1,165.5,255.9,160.3,249.4,160.3z"/>
	<path class="icon" d="M249.4,70.3c6.4,0,11.7-5.2,11.7-11.7V47.5c0-6.4-5.2-11.7-11.7-11.7s-11.7,5.2-11.7,11.7v11.2
		C237.8,65.1,243,70.3,249.4,70.3z"/>
	<path class="icon" d="M306.1,127h11.2c6.4,0,11.7-5.2,11.7-11.7c0-6.4-5.2-11.7-11.7-11.7h-11.2c-6.4,0-11.7,5.2-11.7,11.7
		C294.4,121.7,299.6,127,306.1,127z"/>
	<path class="icon" d="M227.7,99.3c-3.3,4.5-5.3,10-5.3,16c0,14.9,12.1,27,27,27c14.9,0,27-12.1,27-27c0-14.9-12.1-27-27-27
		c-6.1,0-11.7,2-16.2,5.4l-30-30c-1.5-1.5-4-1.5-5.5,0s-1.5,4,0,5.5L227.7,99.3z"/>
	<path class="icon" d="M174.9,381.9c4-3,6.9-6.3,8.7-9.7c1.8-3.5,2.7-7.3,2.7-11.5c0-6.5-2-12.2-5.9-17s-9.2-8.1-15.9-9.8
		c-4.7-1.3-12.1-2-22.3-2h-17.5v111.3h31.2c9,0,16-1.3,21.1-3.8s9.3-6.4,12.5-11.5c3.2-5.1,4.8-10.8,4.8-17.1
		c0-6.5-1.6-12.1-4.7-16.9C186.6,389.1,181.6,385.1,174.9,381.9z M145.9,352.1h5.5c4.9,0,8.5,1,10.9,3.1c2.4,2,3.6,4.8,3.6,8.3
		c0,3.7-1.3,6.7-3.8,8.9c-2.5,2.2-6.3,3.3-11.5,3.3h-4.6V352.1z M169,419.7c-3.1,2.2-9,3.3-17.8,3.3h-5.3v-28.5h4.4
		c8.3,0,14.3,1.4,17.9,4.2s5.4,6.6,5.4,11.4C173.6,414.3,172.1,417.5,169,419.7z"/>
	<polygon class="icon" points="297.9,331.9 271.9,409.6 246.1,331.9 225.4,331.9 206.1,443.2 226.8,443.2 239,372.9 262.5,443.2 
		281.1,443.2 304.8,372.9 316.7,443.2 337.2,443.2 318.5,331.9 	"/>
	<rect x="352.6" y="331.9" class="icon" width="21" height="111.3"/>
</g>
</svg>
